<svg width="3994" height="2958" viewBox="0 0 3994 2958" fill="none" xmlns="http://www.w3.org/2000/svg">
<g clip-path="url(#clip0_53_126)">
<rect width="3994" height="2958" fill="#FAFAF5"/>
<path opacity="0.5" d="M2021 1197.18L1785.96 1349.13L1655.61 1147.38C1597.05 1056.75 1475.71 1030.68 1385.1 1089.25L1060.04 1299.4C861.378 1427.84 595.299 1370.66 466.899 1171.93C332.046 963.223 392.088 683.669 600.743 548.778L609.876 542.87C778.121 418.558 769.423 322.853 710.277 230.629C638.78 119.141 510.198 126.363 398.994 198.254L-178.09 571.338L-330 336.235L247.093 -36.8488C487.896 -192.526 810.417 -123.218 966.041 117.645C1098.8 323.114 1039.7 598.301 834.293 731.087L748.4 797.854C708.216 831.82 635.475 912.734 701.927 1019.98C745.252 1089.89 839.068 1108.94 908.13 1064.29L1233.19 854.137C1453.39 711.78 1748.32 775.154 1890.63 995.415L2020.99 1197.17L2021 1197.18Z" fill="black" fill-opacity="0.04"/>
<path opacity="0.5" d="M1785.72 1349.28L2020.76 1197.33L2151.12 1399.08C2209.67 1489.71 2331.02 1515.78 2421.62 1457.21L2746.68 1247.06C2945.34 1118.62 3211.42 1175.8 3339.82 1374.53C3474.68 1583.24 3414.64 1862.79 3205.98 1997.68L3196.85 2003.59C3028.6 2127.9 3037.3 2223.61 3096.45 2315.83C3167.94 2427.32 3296.53 2420.1 3407.73 2348.21L3984.81 1975.12L4136.72 2210.23L3559.63 2583.31C3318.83 2738.99 2996.31 2669.68 2840.68 2428.81C2707.93 2223.35 2767.03 1948.16 2972.43 1815.37L3058.32 1748.61C3098.51 1714.64 3171.25 1633.73 3104.8 1526.48C3061.47 1456.57 2967.66 1437.52 2898.59 1482.17L2573.53 1692.32C2353.34 1834.68 2058.4 1771.31 1916.09 1551.05L1785.73 1349.29L1785.72 1349.28Z" fill="black" fill-opacity="0.04"/>
</g>
<defs>
<clipPath id="clip0_53_126">
<rect width="3994" height="2958" fill="white"/>
</clipPath>
</defs>
</svg>
