<svg width="95" height="70" viewBox="0 0 95 70" fill="none" xmlns="http://www.w3.org/2000/svg">
<g clip-path="url(#clip0_42_115)">
<path d="M95 0H0V70H95V0Z" fill="#DFB780"/>
<path d="M68.8226 22.9909L58.1055 33.5405L51.7933 31.2308L49.2958 24.8684L60.2792 14.0567C58.2855 13.1852 56.083 12.6964 53.7654 12.6964C44.8909 12.6964 37.6934 19.7814 37.6934 28.5172C37.6934 30.8411 38.2044 33.0516 39.1257 35.0425L25.1697 48.7804L33.8139 57.2895L48.029 43.2966C49.814 43.9696 51.7429 44.3381 53.7654 44.3381C62.64 44.3381 69.8375 37.253 69.8375 28.5172C69.8375 26.5688 69.4776 24.7055 68.8226 22.9838V22.9909Z" fill="white"/>
</g>
<defs>
<clipPath id="clip0_42_115">
<rect width="95" height="70" fill="white"/>
</clipPath>
</defs>
</svg>
