<svg width="95" height="72" viewBox="0 0 95 72" fill="none" xmlns="http://www.w3.org/2000/svg">
<g clip-path="url(#clip0_47_176)">
<path d="M95 0H0V71.1115H95V0Z" fill="#1428F0"/>
<path d="M63.5181 34.9367L45.7114 41.616L27.9048 34.9367C27.8184 34.9007 27.7176 34.9151 27.6385 34.9655C27.5593 35.0231 27.5161 35.1095 27.5161 35.203V45.4235C27.5161 52.2324 35.1671 55.1042 45.7114 55.1042C56.2558 55.1042 63.9067 52.2324 63.9067 45.4235V35.203C63.9067 35.1095 63.8635 35.0231 63.7844 34.9655C63.7124 34.9151 63.6044 34.9007 63.5181 34.9295V34.9367Z" fill="white"/>
<path d="M78.4889 48.9719L74.6454 40.7379V31.1796C74.6454 31.086 74.6022 30.9997 74.5231 30.9421C74.4439 30.8917 74.3431 30.8773 74.2568 30.9133L71.9679 31.777C71.86 31.8202 71.7808 31.9282 71.7808 32.0433V40.7451L67.9373 48.9791C67.8942 49.0654 67.9014 49.1734 67.9517 49.2526C68.0021 49.3317 68.0957 49.3821 68.1964 49.3821H78.2226C78.3234 49.3821 78.4097 49.3317 78.4673 49.2526C78.5177 49.1734 78.5249 49.0654 78.4889 48.9791V48.9719Z" fill="white"/>
<path d="M45.7114 38.6362C45.7762 38.6362 45.8482 38.6219 45.9129 38.6003L74.5662 27.8544C74.7894 27.768 74.9405 27.5593 74.9405 27.3218C74.9405 27.0842 74.7894 26.8683 74.5662 26.7819L45.9129 16.036C45.8482 16.0073 45.7762 16.0001 45.7114 16.0001C45.6466 16.0001 45.5747 16.0145 45.5099 16.036L16.8566 26.7819C16.6335 26.8683 16.4823 27.077 16.4823 27.3218C16.4823 27.5665 16.6335 27.7752 16.8566 27.8544L45.5099 38.6003C45.5747 38.6219 45.6466 38.6362 45.7114 38.6362Z" fill="white"/>
</g>
<defs>
<clipPath id="clip0_47_176">
<rect width="95" height="71.1115" fill="white"/>
</clipPath>
</defs>
</svg>
