<svg width="95" height="72" viewBox="0 0 95 72" fill="none" xmlns="http://www.w3.org/2000/svg">
<g clip-path="url(#clip0_49_184)">
<path d="M59.4445 0H35.5555C15.9187 0 0 15.9187 0 35.5555C0 55.1922 15.9187 71.111 35.5555 71.111H59.4445C79.0813 71.111 95 55.1922 95 35.5555C95 15.9187 79.0813 0 59.4445 0Z" fill="#1428F0"/>
<path d="M66.8972 46.6919C66.7401 45.8348 66.2167 45.0823 65.4708 44.6243L59.7193 41.1499C58.5285 40.4367 57.0105 40.6068 56.0094 41.5686L53.6669 43.8391C53.5033 43.8653 52.5153 43.9242 49.7018 41.8762C46.7312 39.9394 40.8489 33.4355 40.8947 30.6219L43.2437 28.3515C44.2382 27.3896 44.4607 25.8782 43.7868 24.6677L40.5086 18.7985C39.6777 17.2216 37.4334 16.7374 36.0331 17.8301L33.5794 19.6294C31.9895 20.7941 31.0472 22.6458 31.0603 24.5695C31.08 27.9916 31.9437 36.7987 39.5664 44.6897C47.1892 52.5808 55.9701 53.7454 59.3856 53.8763C61.3224 53.9548 63.2068 53.0584 64.4108 51.5273L66.2952 49.1391C66.8383 48.452 67.0542 47.5622 66.9037 46.6985L66.8972 46.6919Z" fill="white"/>
</g>
<defs>
<clipPath id="clip0_49_184">
<rect width="95" height="71.111" fill="white"/>
</clipPath>
</defs>
</svg>
