<svg width="131" height="23" viewBox="0 0 131 23" fill="none" xmlns="http://www.w3.org/2000/svg">
<path d="M122.003 17.2075C118.43 17.2075 115.408 14.0578 115.408 10.3234C115.408 6.33414 118.181 3.43921 122.003 3.43921C125.164 3.43921 126.438 4.93299 127.283 5.92306C127.897 6.641 128.122 6.90734 128.985 6.90734H131V10.2249H128.985C126.594 10.2249 125.534 8.9859 124.764 8.07689C124.064 7.25473 123.641 6.7568 122.008 6.7568C119.745 6.7568 118.731 8.54587 118.731 10.3234C118.731 12.2224 120.26 13.8899 122.008 13.8899C123.595 13.8899 125.285 13.1372 125.285 11.0181H128.603C128.603 14.6658 125.893 17.2075 122.008 17.2075H122.003Z" fill="#1428F0"/>
<path d="M49.7682 13.2183C49.1023 15.4763 47.0354 17.358 43.822 17.358C40.2381 17.358 37.0826 14.7815 37.0826 10.3754C37.0826 6.21253 40.1628 3.50287 43.5035 3.50287C47.5391 3.50287 49.9535 6.07936 49.9535 10.2712C49.9535 10.7749 49.9013 11.3076 49.9013 11.3597H40.5565C40.6376 13.0851 42.0966 14.3299 43.8451 14.3299C45.4895 14.3299 46.3927 13.5078 46.8153 12.3382L49.7624 13.2125L49.7682 13.2183ZM46.4795 8.94534C46.4274 7.64262 45.5763 6.36885 43.5614 6.36885C41.7318 6.36885 40.7244 7.74684 40.6433 8.94534H46.4795Z" fill="#1428F0"/>
<path d="M52.7384 16.9585V3.90235H56.1081V5.49456C56.826 4.22079 58.4993 3.5318 59.9294 3.5318C61.7069 3.5318 63.1428 4.30185 63.8028 5.70879C64.8392 4.11658 66.2172 3.5318 67.9426 3.5318C70.357 3.5318 72.6671 4.99085 72.6671 8.49371V16.9585H69.2453V9.21166C69.2453 7.80472 68.5563 6.74518 66.9351 6.74518C65.424 6.74518 64.5208 7.91473 64.5208 9.32167V16.9643H61.0179V9.21745C61.0179 7.81051 60.3 6.75097 58.7077 6.75097C57.1155 6.75097 56.2644 7.89157 56.2644 9.32746V16.9701H52.7326L52.7384 16.9585Z" fill="#1428F0"/>
<path d="M87.9582 13.2183C87.2923 15.4763 85.2254 17.358 82.012 17.358C78.4281 17.358 75.2726 14.7815 75.2726 10.3754C75.2726 6.20674 78.3528 3.50287 81.6935 3.50287C85.7291 3.50287 88.1435 6.07936 88.1435 10.2712C88.1435 10.7749 88.0913 11.3076 88.0913 11.3597H78.7523C78.8334 13.0851 80.2924 14.3299 82.0409 14.3299C83.6853 14.3299 84.5885 13.5078 85.0111 12.3382L87.9582 13.2125V13.2183ZM84.6695 8.94534C84.6174 7.64262 83.7663 6.36885 81.7514 6.36885C79.9218 6.36885 78.9144 7.74684 78.8334 8.94534H84.6695Z" fill="#1428F0"/>
<path d="M94.4602 16.9585H90.9283V3.90239H94.3502V5.52356C95.1492 4.16873 96.7124 3.56079 98.1194 3.56079C101.356 3.56079 102.844 5.87095 102.844 8.73693V16.9643H99.3121V9.34487C99.3121 7.88582 98.5941 6.74522 96.8977 6.74522C95.3576 6.74522 94.4544 7.93793 94.4544 9.44909V16.9585H94.4602Z" fill="#1428F0"/>
<path d="M110.782 3.90237H113.41V7.03469H110.782V12.5003C110.782 13.6409 111.314 14.0115 112.322 14.0115C112.745 14.0115 113.225 13.9594 113.41 13.9073V16.8254C113.092 16.9585 112.455 17.1438 111.419 17.1438C108.871 17.1438 107.279 15.6326 107.279 13.1083V7.0289H104.917V3.89658H105.583C106.961 3.89658 107.597 2.99336 107.597 1.82381V0H110.782V3.90237Z" fill="#1428F0"/>
<path d="M0.379028 16.9051V3.62145H3.38251V6.69819L3.04065 6.1854C3.28483 5.22494 3.7732 4.50866 4.50576 4.03657C5.23832 3.56448 6.1011 3.32843 7.09412 3.32843C8.18482 3.32843 9.14528 3.61331 9.97551 4.18308C10.8057 4.75285 11.3429 5.50168 11.5871 6.42958L10.6836 6.50284C11.0906 5.4447 11.7011 4.65517 12.515 4.13424C13.329 3.59703 14.265 3.32843 15.3232 3.32843C16.2674 3.32843 17.1057 3.54006 17.8383 3.96331C18.5871 4.38657 19.1732 4.98075 19.5964 5.74587C20.0197 6.4947 20.2313 7.36563 20.2313 8.35865V16.9051H17.0325V9.11562C17.0325 8.52958 16.9267 8.02493 16.715 7.60167C16.5034 7.17842 16.2104 6.85284 15.836 6.62493C15.4615 6.38075 15.0057 6.25865 14.4685 6.25865C13.9639 6.25865 13.5162 6.38075 13.1255 6.62493C12.7348 6.85284 12.4336 7.17842 12.222 7.60167C12.0104 8.02493 11.9046 8.52958 11.9046 9.11562V16.9051H8.70575V9.11562C8.70575 8.52958 8.59993 8.02493 8.38831 7.60167C8.17668 7.17842 7.87552 6.85284 7.48482 6.62493C7.1104 6.38075 6.66273 6.25865 6.1418 6.25865C5.63715 6.25865 5.18948 6.38075 4.79878 6.62493C4.40809 6.85284 4.10692 7.17842 3.8953 7.60167C3.68367 8.02493 3.57786 8.52958 3.57786 9.11562V16.9051H0.379028Z" fill="#6D6A61"/>
<path d="M24.3107 22.2772C23.9526 22.2772 23.6026 22.2447 23.2607 22.1795C22.9189 22.1307 22.6096 22.033 22.3328 21.8865V19.2249C22.5444 19.2737 22.7968 19.3226 23.0898 19.3714C23.3991 19.4202 23.684 19.4447 23.9444 19.4447C24.677 19.4447 25.2061 19.2737 25.5316 18.9319C25.8735 18.6063 26.1747 18.1668 26.4351 17.6133L27.3142 15.5621L27.2654 18.2482L21.4782 3.62145H24.9212L28.9747 14.4144H27.7537L31.7828 3.62145H35.2502L29.463 18.2482C29.1212 19.0947 28.706 19.8191 28.2177 20.4214C27.7293 21.0237 27.1595 21.4795 26.5084 21.7888C25.8735 22.1144 25.1409 22.2772 24.3107 22.2772Z" fill="#6D6A61"/>
</svg>
